HIERARCHY
ROOT Hips
{
  OFFSET 103.367 180.658 42.4521
  CHANNELS 6 Xposition Yposition Zposition Zrotation Xrotation Yrotation
  JOINT Spine
  {
    OFFSET 0 10.1816 0.1315
    CHANNELS 6 Xposition Yposition Zposition Zrotation Xrotation Yrotation
    JOINT Spine1
    {
      OFFSET 0 10.0835 -1.0008
      CHANNELS 6 Xposition Yposition Zposition Zrotation Xrotation Yrotation
      JOINT Spine2
      {
        OFFSET 0 9.1 -1.3734
        CHANNELS 6 Xposition Yposition Zposition Zrotation Xrotation Yrotation
        JOINT Neck
        {
          OFFSET 0 16.6717 -2.5162
          CHANNELS 6 Xposition Yposition Zposition Zrotation Xrotation Yrotation
          JOINT Head
          {
            OFFSET 0 9.6179 1.685
            CHANNELS 6 Xposition Yposition Zposition Zrotation Xrotation Yrotation
            JOINT HeadTop_End
            {
              OFFSET 0 17.8152 2.585
              CHANNELS 6 Xposition Yposition Zposition Zrotation Xrotation Yrotation
              End Site
              {
                OFFSET 0 0 0
              }
            }
            JOINT LeftEye
            {
              OFFSET 3.0676 6.4095 9.2836
              CHANNELS 6 Xposition Yposition Zposition Zrotation Xrotation Yrotation
              End Site
              {
                OFFSET 0 0 0
              }
            }
            JOINT RightEye
            {
              OFFSET -3.0676 6.4095 9.2835
              CHANNELS 6 Xposition Yposition Zposition Zrotation Xrotation Yrotation
              End Site
              {
                OFFSET 0 0 0
              }
            }
          }
        }
        JOINT LeftShoulder
        {
          OFFSET 4.5704 10.946 -2.628
          CHANNELS 6 Xposition Yposition Zposition Zrotation Xrotation Yrotation
          JOINT LeftArm
          {
            OFFSET 10.5924 -0.5246 -2.2321
            CHANNELS 6 Xposition Yposition Zposition Zrotation Xrotation Yrotation
            JOINT LeftForeArm
            {
              OFFSET 27.8415 -0.0001 0
              CHANNELS 6 Xposition Yposition Zposition Zrotation Xrotation Yrotation
              JOINT LeftHand
              {
                OFFSET 28.3288 0 0
                CHANNELS 6 Xposition Yposition Zposition Zrotation Xrotation Yrotation
                JOINT LeftHandThumb1
                {
                  OFFSET 2.4661 -1.575 2.6824
                  CHANNELS 6 Xposition Yposition Zposition Zrotation Xrotation Yrotation
                  JOINT LeftHandThumb2
                  {
                    OFFSET 3.2298 -1.8647 1.8647
                    CHANNELS 6 Xposition Yposition Zposition Zrotation Xrotation Yrotation
                    JOINT LeftHandThumb3
                    {
                      OFFSET 2.6526 -1.5315 1.5315
                      CHANNELS 6 Xposition Yposition Zposition Zrotation Xrotation Yrotation
                      End Site
                      {
                        OFFSET 1.9546 -1.1285 1.1285
                      }
                    }
                  }
                }
                JOINT LeftHandIndex1
                {
                  OFFSET 9.1093 -0.5171 2.2601
                  CHANNELS 6 Xposition Yposition Zposition Zrotation Xrotation Yrotation
                  JOINT LeftHandIndex2
                  {
                    OFFSET 3.6764 0 0
                    CHANNELS 6 Xposition Yposition Zposition Zrotation Xrotation Yrotation
                    JOINT LeftHandIndex3
                    {
                      OFFSET 2.8831 0 0
                      CHANNELS 6 Xposition Yposition Zposition Zrotation Xrotation Yrotation
                      End Site
                      {
                        OFFSET 2.3927 0 0
                      }
                    }
                  }
                }
                JOINT LeftHandMiddle1
                {
                  OFFSET 9.5334 0 0
                  CHANNELS 6 Xposition Yposition Zposition Zrotation Xrotation Yrotation
                  JOINT LeftHandMiddle2
                  {
                    OFFSET 3.6982 0 0
                    CHANNELS 6 Xposition Yposition Zposition Zrotation Xrotation Yrotation
                    JOINT LeftHandMiddle3
                    {
                      OFFSET 2.9509 0 0
                      CHANNELS 6 Xposition Yposition Zposition Zrotation Xrotation Yrotation
                      End Site
                      {
                        OFFSET 2.8339 0 0
                      }
                    }
                  }
                }
                JOINT LeftHandRing1
                {
                  OFFSET 9.1045 -0.0439 -1.8651
                  CHANNELS 6 Xposition Yposition Zposition Zrotation Xrotation Yrotation
                  JOINT LeftHandRing2
                  {
                    OFFSET 3.154 0 0
                    CHANNELS 6 Xposition Yposition Zposition Zrotation Xrotation Yrotation
                    JOINT LeftHandRing3
                    {
                      OFFSET 2.9377 0 0
                      CHANNELS 6 Xposition Yposition Zposition Zrotation Xrotation Yrotation
                      End Site
                      {
                        OFFSET 2.6475 0 0
                      }
                    }
                  }
                }
                JOINT LeftHandPinky1
                {
                  OFFSET 8.0778 -0.4887 -3.8061
                  CHANNELS 6 Xposition Yposition Zposition Zrotation Xrotation Yrotation
                  JOINT LeftHandPinky2
                  {
                    OFFSET 3.6 0 0
                    CHANNELS 6 Xposition Yposition Zposition Zrotation Xrotation Yrotation
                    JOINT LeftHandPinky3
                    {
                      OFFSET 2.1142 0 0
                      CHANNELS 6 Xposition Yposition Zposition Zrotation Xrotation Yrotation
                      End Site
                      {
                        OFFSET 1.9757 0 0
                      }
                    }
                  }
                }
              }
            }
          }
        }
        JOINT RightShoulder
        {
          OFFSET -4.57 10.9462 -2.628
          CHANNELS 6 Xposition Yposition Zposition Zrotation Xrotation Yrotation
          JOINT RightArm
          {
            OFFSET -10.5928 -0.5248 -2.2321
            CHANNELS 6 Xposition Yposition Zposition Zrotation Xrotation Yrotation
            JOINT RightForeArm
            {
              OFFSET -27.8415 0 0
              CHANNELS 6 Xposition Yposition Zposition Zrotation Xrotation Yrotation
              JOINT RightHand
              {
                OFFSET -28.3288 0 0.0001
                CHANNELS 6 Xposition Yposition Zposition Zrotation Xrotation Yrotation
                JOINT RightHandPinky1
                {
                  OFFSET -8.0767 -0.4885 -3.806
                  CHANNELS 6 Xposition Yposition Zposition Zrotation Xrotation Yrotation
                  JOINT RightHandPinky2
                  {
                    OFFSET -3.6 0 0.0001
                    CHANNELS 6 Xposition Yposition Zposition Zrotation Xrotation Yrotation
                    JOINT RightHandPinky3
                    {
                      OFFSET -2.1142 0 0
                      CHANNELS 6 Xposition Yposition Zposition Zrotation Xrotation Yrotation
                      End Site
                      {
                        OFFSET -1.9757 0 0
                      }
                    }
                  }
                }
                JOINT RightHandRing1
                {
                  OFFSET -9.1036 -0.0439 -1.8651
                  CHANNELS 6 Xposition Yposition Zposition Zrotation Xrotation Yrotation
                  JOINT RightHandRing2
                  {
                    OFFSET -3.154 0 0
                    CHANNELS 6 Xposition Yposition Zposition Zrotation Xrotation Yrotation
                    JOINT RightHandRing3
                    {
                      OFFSET -2.9377 0 0
                      CHANNELS 6 Xposition Yposition Zposition Zrotation Xrotation Yrotation
                      End Site
                      {
                        OFFSET -2.6475 0 0
                      }
                    }
                  }
                }
                JOINT RightHandMiddle1
                {
                  OFFSET -9.5325 0 0
                  CHANNELS 6 Xposition Yposition Zposition Zrotation Xrotation Yrotation
                  JOINT RightHandMiddle2
                  {
                    OFFSET -3.6982 0 0
                    CHANNELS 6 Xposition Yposition Zposition Zrotation Xrotation Yrotation
                    JOINT RightHandMiddle3
                    {
                      OFFSET -2.9509 0 0
                      CHANNELS 6 Xposition Yposition Zposition Zrotation Xrotation Yrotation
                      End Site
                      {
                        OFFSET -2.8339 0 0.0001
                      }
                    }
                  }
                }
                JOINT RightHandIndex1
                {
                  OFFSET -9.1083 -0.5168 2.2601
                  CHANNELS 6 Xposition Yposition Zposition Zrotation Xrotation Yrotation
                  JOINT RightHandIndex2
                  {
                    OFFSET -3.6764 0 0
                    CHANNELS 6 Xposition Yposition Zposition Zrotation Xrotation Yrotation
                    JOINT RightHandIndex3
                    {
                      OFFSET -2.8831 0 0
                      CHANNELS 6 Xposition Yposition Zposition Zrotation Xrotation Yrotation
                      End Site
                      {
                        OFFSET -2.3927 0 0
                      }
                    }
                  }
                }
                JOINT RightHandThumb1
                {
                  OFFSET -2.4648 -1.5727 2.6826
                  CHANNELS 6 Xposition Yposition Zposition Zrotation Xrotation Yrotation
                  JOINT RightHandThumb2
                  {
                    OFFSET -3.2298 -1.8647 1.8647
                    CHANNELS 6 Xposition Yposition Zposition Zrotation Xrotation Yrotation
                    JOINT RightHandThumb3
                    {
                      OFFSET -2.6526 -1.5314 1.5314
                      CHANNELS 6 Xposition Yposition Zposition Zrotation Xrotation Yrotation
                      End Site
                      {
                        OFFSET -1.9546 -1.1285 1.1285
                      }
                    }
                  }
                }
              }
            }
          }
        }
      }
    }
  }
  JOINT LeftUpLeg
  {
    OFFSET 8.2078 -6.7517 -1.5996
    CHANNELS 6 Xposition Yposition Zposition Zrotation Xrotation Yrotation
    JOINT LeftLeg
    {
      OFFSET 0 -44.3705 0.2846
      CHANNELS 6 Xposition Yposition Zposition Zrotation Xrotation Yrotation
      JOINT LeftFoot
      {
        OFFSET 0 -44.4279 -2.9822
        CHANNELS 6 Xposition Yposition Zposition Zrotation Xrotation Yrotation
        JOINT LeftToeBase
        {
          OFFSET 0 -8.7287 10.7106
          CHANNELS 6 Xposition Yposition Zposition Zrotation Xrotation Yrotation
          End Site
          {
            OFFSET 0 -0.0007 9.2781
          }
        }
      }
    }
  }
  JOINT RightUpLeg
  {
    OFFSET -8.2078 -6.7517 -1.5996
    CHANNELS 6 Xposition Yposition Zposition Zrotation Xrotation Yrotation
    JOINT RightLeg
    {
      OFFSET 0 -44.3705 0.2862
      CHANNELS 6 Xposition Yposition Zposition Zrotation Xrotation Yrotation
      JOINT RightFoot
      {
        OFFSET 0 -44.4277 -2.9838
        CHANNELS 6 Xposition Yposition Zposition Zrotation Xrotation Yrotation
        JOINT RightToeBase
        {
          OFFSET 0 -8.7287 10.7106
          CHANNELS 6 Xposition Yposition Zposition Zrotation Xrotation Yrotation
          End Site
          {
            OFFSET 0 -0.0007 9.2781
          }
        }
      }
    }
  }
}
MOTION
Frames:	4
Frame Time:	0.0333333
103.367 180.658 42.4521 -2.17383 15.6327 177.343 1.42109e-014 10.1816 0.1315 -0.689933 4.28003 0.916629 0 10.0835 -1.0008 0.974361 8.56828 2.05401 1.42109e-014 9.1 -1.3734 0.974361 8.56828 2.05401 1.42109e-014 16.6717 -2.5162 1.77744 -1.631 -3.41452 1.42109e-014 9.6179 1.685 -13.8473 -31.1647 -18.2222 0 17.8152 2.585 1.59028e-015 -3.18055e-015 -3.18055e-015 3.0676 6.4095 9.2836 1.59028e-015 -3.18055e-015 -3.18055e-015 -3.0676 6.4095 9.2835 1.59028e-015 -3.18055e-015 -3.18055e-015 4.5704 10.946 -2.628 8.44141 0.271873 -0.174567 10.5924 -0.5246 -2.2321 -42.3738 -16.2167 -78.4932 27.8415 -0.0001 2.84217e-014 1.24477 5.0326 -61.6085 28.3288 0 0 -4.95993 12.8731 14.1267 2.4661 -1.575 2.6824 -11.1876 36.8408 -2.8797 3.2298 -1.8647 1.8647 5.05812 -4.15229 11.1786 2.6526 -1.5315 1.5315 -7.31612e-005 -2.10978e-006 -7.04029e-005 9.1093 -0.5171 2.2601 -36.4045 -7.14962 1.37581 3.6764 2.84217e-014 -1.42109e-014 -62.7818 -0.47107 0.893809 2.8831 0 0 7.95139e-016 6.36111e-015 -2.38542e-015 9.5334 0 0 -45.4693 -1.52786 -2.54154 3.6982 2.84217e-014 -1.42109e-014 -67.9742 2.94629 -4.38434 2.9509 7.10543e-015 0 -7.95139e-016 -6.36111e-015 2.78299e-015 9.1045 -0.0439 -1.8651 -48.316 -1.32495 -2.41406 3.154 0 0 -74.4985 3.60078 -4.72362 2.9377 3.9968e-015 0 0 0 -1.59028e-015 8.0778 -0.4887 -3.8061 -32.8233 -2.92975 8.72213 3.6 -2.84217e-014 0 -47.3511 2.18414 -4.9646 2.1142 0 1.42109e-014 1.76556e-031 3.18055e-015 -3.18055e-015 -4.57 10.9462 -2.628 13.3114 3.27709 17.514 -10.5928 -0.5248 -2.2321 49.0494 -9.8918 43.0671 -27.8415 0 -2.13163e-014 1.99474 -1.39907 88.4754 -28.3288 0 0.0001 53.5764 52.9889 -58.8962 -8.0767 -0.4885 -3.806 13.8398 -0.65311 9.07321 -3.6 0 0.0001 71.0355 6.7535 9.46641 -2.1142 -2.66454e-015 0 -6.88494e-006 1.56108e-006 7.57351e-006 -9.1036 -0.0439 -1.8651 19.0449 0.471732 0.814998 -3.154 2.84217e-014 0 68.4873 3.89682 5.92725 -2.9377 -5.32907e-015 0 1.59028e-015 -3.18055e-015 -3.97569e-016 -9.5325 -2.84217e-014 1.42109e-014 22.4707 -2.37008 -1.81633 -3.6982 0 -1.42109e-014 76.0688 2.71489 3.48315 -2.9509 3.55271e-015 1.42109e-014 4.71186e-006 -4.91591e-006 -0.00201245 -9.1083 -0.5168 2.2601 13.8291 -7.75716 -0.325738 -3.6764 5.68434e-014 0 65.3506 -1.22164 -2.02662 -2.8831 7.10543e-015 1.42109e-014 -6.62086e-032 1.59028e-015 2.38542e-015 -2.4648 -1.5727 2.6826 -20.1305 33.9684 25.8323 -3.2298 -1.8647 1.8647 16.0852 -6.31864 -6.95435 -2.6526 -1.5314 1.5314 -0.00122534 -5.13006e-006 -0.00121435 8.2078 -6.7517 -1.5996 7.75264 -33.7893 38.4589 1.42109e-014 -44.3705 0.2846 -2.56178 48.1694 1.65651 0 -44.4279 -2.9822 -0.496208 -9.39109 -12.2051 0 -8.7287 10.7106 0.0658186 -1.41036 -0.0268346 -8.2078 -6.7517 -1.5996 -37.1662 -44.5093 -43.0801 0 -44.3705 0.2862 164.06 79.5108 -162.98 0 -44.4277 -2.9838 12.1742 -3.61735 9.2058 -7.10543e-015 -8.7287 10.7106 0.26167 -0.171568 -0.108663 
103.526 180.999 41.9929 -2.39788 17.0182 175.834 1.42109e-014 10.1816 0.1315 -0.935033 4.31427 0.854785 0 10.0835 -1.0008 1.13115 8.63753 2.08978 1.42109e-014 9.1 -1.3734 1.13115 8.63753 2.08978 0 16.6717 -2.5162 1.03636 -0.855827 -3.03436 0 9.6179 1.685 -12.818 -31.3179 -15.7818 -1.42109e-014 17.8152 2.585 7.95139e-016 -3.18055e-015 1.59028e-015 3.0676 6.4095 9.2836 7.95139e-016 -3.18055e-015 1.59028e-015 -3.0676 6.4095 9.2835 7.95139e-016 -3.18055e-015 1.59028e-015 4.5704 10.946 -2.628 8.26323 0.335404 0.920147 10.5924 -0.5246 -2.2321 -50.5434 -11.2831 -78.9863 27.8415 -0.0001 0 3.63356 4.3055 -60.1142 28.3288 0 -2.84217e-014 -9.61164 19.2788 13.0903 2.4661 -1.575 2.6824 -11.9856 36.4981 -4.16833 3.2298 -1.8647 1.8647 5.23828 -1.04286 17.2435 2.6526 -1.5315 1.5315 -7.31612e-005 -2.10978e-006 -7.04029e-005 9.1093 -0.5171 2.2601 -39.6326 -7.13811 1.43671 3.6764 2.84217e-014 0 -62.5673 -0.468068 0.892132 2.8831 -1.42109e-014 0 -1.76556e-031 6.36111e-015 1.59028e-015 9.5334 2.84217e-014 1.42109e-014 -47.6026 -1.54866 -2.46857 3.6982 0 0 -67.8405 2.93605 -4.38018 2.9509 0 1.42109e-014 -1.59028e-015 -3.18055e-015 -7.95139e-016 9.1045 -0.0439 -1.8651 -49.6885 -1.34979 -2.1626 3.154 0 0 -74.607 3.60974 -4.7261 2.9377 7.99361e-015 0 -3.18055e-015 -3.18055e-015 3.18055e-015 8.0778 -0.4887 -3.8061 -32.673 -2.19215 8.48625 3.6 2.84217e-014 1.42109e-014 -47.3635 2.3148 -4.45156 2.1142 0 1.42109e-014 3.18055e-015 -6.36111e-015 6.36111e-015 -4.57 10.9462 -2.628 13.8806 3.14833 16.71 -10.5928 -0.5248 -2.2321 45.6031 -6.4199 43.9036 -27.8415 0 -1.42109e-014 2.96802 -1.7748 86.1734 -28.3288 2.84217e-014 0.0001 49.6102 52.6323 -56.7699 -8.0767 -0.4885 -3.806 4.72988 2.06096 6.01759 -3.6 -2.84217e-014 0.0001 42.379 2.8603 9.23037 -2.1142 -2.84217e-014 0 -6.88494e-006 1.56108e-006 7.57351e-006 -9.1036 -0.0439 -1.8651 14.6453 0.422852 0.339958 -3.154 -2.84217e-014 0 37.57 1.2508 4.12221 -2.9377 0 0 -3.18055e-015 -4.77083e-015 -1.59028e-015 -9.5325 0 1.42109e-014 18.8888 -1.9218 -1.96846 -3.6982 2.84217e-014 0 47.1916 1.08545 2.35136 -2.9509 -1.42109e-014 -1.42109e-014 4.71186e-006 -4.91591e-006 -0.00201245 -9.1083 -0.5168 2.2601 10.3978 -7.7393 -1.04156 -3.6764 0 0 39.0415 -0.582696 -2.84987 -2.8831 0 0 -3.97252e-031 4.77083e-015 4.77083e-015 -2.4648 -1.5727 2.6826 -21.8977 34.5752 24.726 -3.2298 -1.8647 1.8647 15.3153 -5.80875 -8.45877 -2.6526 -1.5314 1.5314 -0.00122534 -5.13006e-006 -0.00121435 8.2078 -6.7517 -1.5996 8.92484 -31.3538 38.6509 -1.42109e-014 -44.3705 0.2846 -2.53529 48.4431 1.753 1.42109e-014 -44.4279 -2.9822 -5.7304 -10.4132 -16.7443 0 -8.7287 10.7106 0.0665788 -1.75328 -0.0269793 -8.2078 -6.7517 -1.5996 -48.0326 -47.1908 -52.7137 1.42109e-014 -44.3705 0.2862 168.509 73.4594 -162.905 0 -44.4277 -2.9838 17.23 -9.0765 16.9104 3.55271e-015 -8.7287 10.7106 0.259083 -1.17747 -0.102332 
103.729 182.732 41.4972 -2.51378 18.5781 174.434 -1.42109e-014 10.1816 0.1315 -1.06641 4.30331 0.69692 1.42109e-014 10.0835 -1.0008 1.05554 8.61301 1.89899 0 9.1 -1.3734 1.05554 8.61301 1.89899 0 16.6717 -2.5162 0.372166 0.575394 -2.65227 0 9.6179 1.685 -11.9806 -31.3768 -13.3569 1.42109e-014 17.8152 2.585 -7.95139e-016 -3.18055e-015 -3.18055e-015 3.0676 6.4095 9.2836 -7.95139e-016 -3.18055e-015 -3.18055e-015 -3.0676 6.4095 9.2835 -7.95139e-016 -3.18055e-015 -3.18055e-015 4.5704 10.946 -2.628 8.30925 0.275791 -0.111235 10.5924 -0.5246 -2.2321 -57.5627 -7.9781 -75.2808 27.8415 -0.0001 0 5.37489 3.10526 -61.1622 28.3288 0 2.84217e-014 -13.882 26.2582 13.7223 2.4661 -1.575 2.6824 -12.569 36.024 -5.05664 3.2298 -1.8647 1.8647 5.07421 2.06357 23.4139 2.6526 -1.5315 1.5315 -7.31612e-005 -2.10978e-006 -7.04029e-005 9.1093 -0.5171 2.2601 -40.9469 -7.11142 1.72511 3.6764 2.84217e-014 0 -63.0199 -0.474416 0.895665 2.8831 7.10543e-015 -1.42109e-014 -7.95139e-016 6.36111e-015 3.77691e-015 9.5334 0 0 -48.398 -1.55211 -2.45866 3.6982 0 2.84217e-014 -68.0272 2.95034 -4.38597 2.9509 -7.10543e-015 1.42109e-014 1.59028e-015 0 7.95139e-016 9.1045 -0.0439 -1.8651 -50.387 -1.34964 -2.09357 3.154 2.84217e-014 2.84217e-014 -74.8716 3.63156 -4.73207 2.9377 0 -1.42109e-014 -3.18055e-015 3.18055e-015 -0 8.0778 -0.4887 -3.8061 -32.6131 -1.98584 8.3031 3.6 0 1.42109e-014 -47.3667 2.35367 -4.32419 2.1142 2.84217e-014 0 -3.18055e-015 -3.18055e-015 1.59028e-015 -4.57 10.9462 -2.628 14.3565 2.71281 14.8642 -10.5928 -0.5248 -2.2321 42.471 -0.121327 43.1178 -27.8415 2.84217e-014 1.42109e-014 4.73013 -1.51738 87.7573 -28.3288 2.84217e-014 0.0001 41.3864 48.0177 -53.0184 -8.0767 -0.4885 -3.806 -3.40286 5.25933 3.33082 -3.6 0 0.0001 18.427 -0.252086 7.81052 -2.1142 2.84217e-014 0 -6.88494e-006 1.56108e-006 7.57351e-006 -9.1036 -0.0439 -1.8651 11.312 0.425259 0.0552427 -3.154 -2.84217e-014 0 11.7105 -0.0863948 1.71368 -2.9377 0 0 0 7.95139e-016 -0 -9.5325 2.84217e-014 0 17.27 -1.57349 -1.77806 -3.6982 2.84217e-014 -1.42109e-014 23.3444 0.365275 0.903391 -2.9509 -2.84217e-014 1.42109e-014 4.71186e-006 -4.91591e-006 -0.00201245 -9.1083 -0.5168 2.2601 9.45566 -7.78306 -1.45119 -3.6764 -2.84217e-014 -7.10543e-015 17.4129 0.355221 -3.22038 -2.8831 0 1.42109e-014 3.18055e-015 7.95139e-016 1.59028e-015 -2.4648 -1.5727 2.6826 -23.6092 35.2638 23.4344 -3.2298 -1.8647 1.8647 14.5728 -5.2018 -10.3315 -2.6526 -1.5314 1.5314 -0.00122534 -5.13006e-006 -0.00121435 8.2078 -6.7517 -1.5996 8.09588 -27.1947 37.1001 0 -44.3705 0.2846 -2.1636 44.9575 1.49673 0 -44.4279 -2.9822 -10.2743 -10.7728 -20.1114 0 -8.7287 10.7106 0.0650261 -1.06077 -0.0266906 -8.2078 -6.7517 -1.5996 -55.9295 -47.9358 -60.2166 1.42109e-014 -44.3705 0.2862 168.33 72.2562 -158.821 1.42109e-014 -44.4277 -2.9838 21.8398 -12.162 22.894 7.32747e-015 -8.7287 10.7106 0.258542 -1.40159 -0.100916 
103.959 186.091 41.231 -2.15135 19.4956 172.186 0 10.1816 0.1315 -1.11427 4.20723 0.630299 0 10.0835 -1.0008 0.768224 8.41717 1.81228 0 9.1 -1.3734 0.768225 8.41717 1.81228 -1.42109e-014 16.6717 -2.5162 0.379369 1.86326 -2.13131 1.42109e-014 9.6179 1.685 -10.6218 -31.3794 -10.0104 1.42109e-014 17.8152 2.585 -1.59028e-015 0 1.59028e-015 3.0676 6.4095 9.2836 -1.59028e-015 0 1.59028e-015 -3.0676 6.4095 9.2835 -1.59028e-015 0 1.59028e-015 4.5704 10.946 -2.628 7.77542 0.189772 -1.74679 10.5924 -0.5246 -2.2321 -61.9377 -6.06661 -68.774 27.8415 -0.0001 -2.84217e-014 6.37777 1.75336 -64.8651 28.3288 0 0 -16.8636 32.5585 15.6708 2.4661 -1.575 2.6824 -12.9775 35.483 -5.63438 3.2298 -1.8647 1.8647 4.461 4.48521 28.5731 2.6526 -1.5315 1.5315 -7.31612e-005 -2.10978e-006 -7.04029e-005 9.1093 -0.5171 2.2601 -41.6808 -7.1009 1.79219 3.6764 2.84217e-014 0 -63.6717 -0.483579 0.900703 2.8831 0 -1.42109e-014 3.97569e-016 0 1.98785e-016 9.5334 -2.84217e-014 -1.42109e-014 -49.0121 -1.55453 -2.44461 3.6982 0 -1.42109e-014 -68.2296 2.96588 -4.39223 2.9509 3.55271e-015 0 4.77083e-015 -6.36111e-015 7.95139e-016 9.1045 -0.0439 -1.8651 -51.0462 -1.34729 -2.03901 3.154 0 0 -75.0756 3.64843 -4.73661 2.9377 1.42109e-014 0 -5.29669e-031 9.54166e-015 3.18055e-015 8.0778 -0.4887 -3.8061 -32.552 -1.78534 8.11464 3.6 2.84217e-014 0 -47.363 2.30949 -4.46974 2.1142 0 0 3.18055e-015 3.18055e-015 1.59028e-015 -4.57 10.9462 -2.628 14.9461 2.51888 13.891 -10.5928 -0.5248 -2.2321 40.8662 6.00912 40.6957 -27.8415 2.84217e-014 -7.10543e-015 5.09807 -0.404138 93.1265 -28.3288 -2.84217e-014 0.0001 33.31 41.6988 -48.5505 -8.0767 -0.4885 -3.806 -7.51922 7.73733 1.19217 -3.6 0 0.0001 12.6166 -0.929654 7.24125 -2.1142 2.84217e-014 -1.42109e-014 -6.88494e-006 1.56108e-006 7.57351e-006 -9.1036 -0.0439 -1.8651 10.7981 0.475995 0.184397 -3.154 2.84217e-014 0 5.67936 -0.313009 0.969663 -2.9377 0 -7.10543e-015 2.20695e-031 3.97569e-015 -3.18055e-015 -9.5325 0 -7.10543e-015 19.2176 -1.50771 -1.16192 -3.6982 0 0 18.403 0.351435 0.69214 -2.9509 0 1.42109e-014 4.71186e-006 -4.91591e-006 -0.00201245 -9.1083 -0.5168 2.2601 12.9145 -7.96264 -1.30098 -3.6764 0 4.44089e-015 13.426 0.69982 -2.66348 -2.8831 2.84217e-014 3.55271e-015 -3.18055e-015 2.38542e-015 -0 -2.4648 -1.5727 2.6826 -26.2577 35.293 22.0891 -3.2298 -1.8647 1.8647 13.8586 -4.51618 -12.324 -2.6526 -1.5314 1.5314 -0.00122534 -5.13006e-006 -0.00121435 8.2078 -6.7517 -1.5996 6.22082 -21.8502 36.0009 0 -44.3705 0.2846 -1.53534 36.8113 1.05612 0 -44.4279 -2.9822 -11.4855 -6.95864 -19.8644 0 -8.7287 10.7106 0.0626155 0.00611332 -0.0262057 -8.2078 -6.7517 -1.5996 -56.804 -47.7607 -62.5471 -1.42109e-014 -44.3705 0.2862 164.589 76.3818 -153.617 -7.10543e-015 -44.4277 -2.9838 24.2033 -12.3001 25.4117 -1.15463e-014 -8.7287 10.7106 0.260074 -0.782716 -0.104799 
